<svg width="148" height="58" viewBox="0 0 148 58" fill="none" xmlns="http://www.w3.org/2000/svg" version="1.1">
    <path fill-rule="evenodd" clip-rule="evenodd"
          d="M42.0102 13.5382L42.0059 13.5338L41.9716 13.5051C41.6537 13.236 41.3806 12.9582 41.1529 12.6813L41.1263 12.6474C40.4545 11.8132 40.1152 10.9007 40.1152 9.9829C40.1152 9.0512 40.4649 8.12647 41.1512 7.28446C41.3857 6.99625 41.6743 6.70629 42.0085 6.42765C42.1382 6.31881 42.2963 6.26395 42.4535 6.26221C42.6107 6.26395 42.7679 6.31881 42.8984 6.42765C43.2317 6.70629 43.5203 6.99625 43.7549 7.28446C44.4421 8.12647 44.7908 9.0512 44.7908 9.9829C44.7908 10.9007 44.4515 11.8132 43.7798 12.6474L43.7531 12.6813C43.5264 12.9582 43.2523 13.236 42.9345 13.5051L42.9001 13.5338L42.8958 13.5382C42.7679 13.6444 42.6115 13.7001 42.4535 13.7036C42.2954 13.7001 42.1382 13.6444 42.0102 13.5382ZM42.4533 8.01318C41.9671 8.57307 41.5693 9.20698 41.5693 9.98281C41.5693 10.7647 41.9679 11.3925 42.4533 11.9481C42.9386 11.3925 43.3363 10.7647 43.3363 9.98281C43.3363 9.20698 42.9395 8.57307 42.4533 8.01318ZM115.298 32.3464C115.06 32.0529 114.631 32.0138 114.344 32.2584C113.962 32.5867 113.526 32.8453 113.073 33.0134C112.615 33.1832 112.123 33.272 111.623 33.2729C110.448 33.2729 109.382 32.78 108.616 31.9868C107.847 31.1926 107.37 30.0894 107.37 28.873C107.37 27.6565 107.847 26.5516 108.616 25.7583C109.382 24.9651 110.448 24.4722 111.623 24.4731C112 24.4731 112.379 24.5245 112.74 24.6246L112.792 24.6385C113.133 24.7387 113.465 24.885 113.773 25.073C114.093 25.2663 114.509 25.1558 114.698 24.8284C114.887 24.5001 114.78 24.0726 114.46 23.8801C114.055 23.6354 113.619 23.4413 113.17 23.308L113.095 23.2828C112.621 23.1522 112.123 23.0825 111.623 23.0825C110.076 23.0825 108.67 23.733 107.658 24.7813C106.643 25.828 106.015 27.2786 106.015 28.873C106.015 30.4673 106.643 31.9162 107.658 32.9646C108.67 34.0121 110.076 34.6626 111.623 34.6634C112.272 34.6634 112.92 34.5424 113.531 34.316C114.142 34.0905 114.713 33.7518 115.213 33.3242C115.499 33.0795 115.536 32.6389 115.298 32.3464ZM102.479 34.5867C102.852 34.5867 103.156 34.2741 103.156 33.891V24.0184C103.156 23.6353 102.852 23.3227 102.479 23.3227C102.105 23.3227 101.801 23.6345 101.801 24.0176V33.8918C101.801 34.2741 102.105 34.5858 102.479 34.5867ZM83.0833 24.0103C83.0833 23.628 83.3874 23.3154 83.7611 23.3154C84.1348 23.3154 84.4389 23.628 84.4389 24.0112V29.1259C84.4389 31.773 83.171 33.4831 81.5534 34.2381L81.55 34.2398V34.2415C80.9186 34.535 80.234 34.6848 79.5494 34.6848C78.8699 34.6839 78.1801 34.5341 77.5462 34.2381C75.9278 33.4823 74.6616 31.7712 74.6616 29.1259V24.0103C74.6616 23.628 74.9657 23.3154 75.3385 23.3154C75.713 23.3154 76.0163 23.628 76.0163 24.0112V29.1259C76.0163 31.146 76.9363 32.4321 78.108 32.9798C78.5564 33.1862 79.0512 33.295 79.5494 33.295C80.045 33.2942 80.5424 33.1871 80.9951 32.9755V32.9772C82.1659 32.4286 83.0833 31.1469 83.0833 29.1259V24.0103ZM127.301 34.5826C127.675 34.5826 127.979 34.27 127.979 33.8869V28.7704C127.979 26.1259 126.711 24.4158 125.094 23.6582L125.091 23.6565V23.6556C124.46 23.3613 123.774 23.2115 123.09 23.2124C122.41 23.2124 121.72 23.363 121.087 23.6608C119.469 24.4158 118.203 26.125 118.203 28.7704V33.8877C118.203 34.27 118.506 34.5826 118.88 34.5826C119.254 34.5826 119.558 34.27 119.558 33.8869V30.6782L126.623 30.6677V33.8877C126.623 34.27 126.928 34.5826 127.301 34.5826ZM126.623 28.7704V29.2815L119.558 29.2911V28.7704C119.558 26.7502 120.477 25.4668 121.649 24.9199C122.097 24.7101 122.592 24.6021 123.09 24.6021C123.586 24.6021 124.083 24.7092 124.536 24.9208V24.9199C125.706 25.4702 126.623 26.7529 126.623 28.7704ZM88.0454 24.0528C88.0454 23.6705 88.3495 23.3579 88.7232 23.3579C88.9362 23.3579 89.126 23.4589 89.2506 23.6174L96.8468 32.1028V24.0885C96.8468 23.7053 97.1517 23.3936 97.5254 23.3936C97.8991 23.3936 98.2031 23.7062 98.2031 24.0893V33.8852H98.1997C98.1997 34.0733 98.1267 34.2623 97.9824 34.3972C97.7084 34.6541 97.278 34.6349 97.0272 34.3546L89.4009 25.8361V33.8513C89.4009 34.2335 89.0968 34.5461 88.7232 34.5461C88.3495 34.5461 88.0454 34.2335 88.0454 33.8513V24.0528ZM46.6638 23.3154C46.2901 23.3154 45.986 23.628 45.986 24.0103V29.1259C45.986 31.1469 45.0678 32.4278 43.8969 32.9772V32.9755C43.4442 33.1871 42.9477 33.2942 42.4512 33.2942C41.953 33.2942 41.4591 33.1862 41.0107 32.979C39.839 32.4321 38.919 31.146 38.919 29.1259V24.0112C38.919 23.628 38.6149 23.3154 38.2412 23.3154C37.8676 23.3154 37.5635 23.628 37.5635 24.0103V29.1259C37.5635 31.7712 38.8305 33.4823 40.4489 34.2381C41.082 34.5332 41.7718 34.6839 42.4512 34.6848C43.1367 34.6848 43.8205 34.535 44.4527 34.2415V34.2389L44.4562 34.2381C46.0728 33.4823 47.3416 31.773 47.3416 29.1259V24.0112C47.3416 23.628 47.0375 23.3154 46.6638 23.3154ZM35.4513 15.5913C35.1446 15.3318 34.6851 15.3727 34.4291 15.6836L34.2684 15.8795C34.0666 16.0859 33.8166 16.2182 33.5666 16.2557C33.3373 16.2888 33.0976 16.24 32.8872 16.0928L32.7214 15.9535V15.9561C32.6621 15.896 32.6045 15.8203 32.559 15.7393C32.407 15.479 32.3477 15.1437 32.3889 14.8033C32.4353 14.4454 32.5934 14.0771 32.87 13.7767C32.9997 13.6347 33.162 13.4998 33.345 13.3892C33.8338 13.0966 34.3792 12.9477 34.935 12.9251H34.9367C35.8868 12.8841 36.8927 13.1941 37.7758 13.7166C38.0738 13.8925 38.3556 14.0892 38.6193 14.3087C38.1898 14.7684 37.8883 15.2343 37.6787 15.6871L37.677 15.694C37.4382 16.213 37.3179 16.7145 37.2629 17.1699V17.1734C37.1006 18.5457 37.5945 19.5062 38.2972 19.9973C38.6425 20.2402 39.0437 20.3699 39.4414 20.383C39.8382 20.3969 40.2463 20.2968 40.6122 20.08C41.3552 19.635 41.9248 18.7077 41.8672 17.3023C41.8371 16.5308 41.5794 15.7619 41.1645 15.054C40.5641 14.0239 39.608 13.0931 38.5051 12.4427C37.3961 11.7879 36.1162 11.4004 34.8758 11.4552C34.0889 11.4883 33.3149 11.7008 32.608 12.124C32.2979 12.3103 32.0281 12.535 31.8091 12.7744C31.3134 13.3134 31.0326 13.9665 30.9501 14.6134V14.6152C30.8685 15.2769 30.9939 15.9431 31.3109 16.4864C31.4294 16.6893 31.5832 16.8878 31.767 17.0585L31.7936 17.0872L31.9611 17.2274L31.9946 17.2527C32.5418 17.6637 33.1741 17.8012 33.7745 17.7133L33.7762 17.7142C34.3569 17.6271 34.917 17.3258 35.3508 16.8582L35.3791 16.826L35.5432 16.6275C35.7992 16.3166 35.7588 15.849 35.4513 15.5913ZM39.6287 15.3647C39.7343 15.5075 39.8314 15.652 39.9173 15.8018C40.2128 16.3077 40.3958 16.8414 40.4164 17.3604C40.449 18.1432 40.2016 18.623 39.8769 18.8145L39.8752 18.8154C39.7592 18.8842 39.6209 18.9173 39.4912 18.9138C39.3658 18.9095 39.2335 18.8642 39.121 18.7858C38.8195 18.5768 38.6176 18.0962 38.7052 17.3491C38.743 17.0252 38.8289 16.669 38.9921 16.3138C39.1347 16.0064 39.34 15.6833 39.6287 15.3647ZM49.3589 16.6251C49.1029 16.3142 49.145 15.8501 49.4525 15.5915C49.7601 15.3311 50.2179 15.3738 50.473 15.6855L50.6259 15.871C50.8295 16.0817 51.0821 16.2176 51.3355 16.2541C51.5683 16.2864 51.8182 16.2315 52.0339 16.0782L52.179 15.9537V15.9555C52.24 15.8945 52.2976 15.8188 52.3457 15.7378C52.496 15.4766 52.557 15.1422 52.5149 14.8017C52.4711 14.4491 52.313 14.086 52.0381 13.7803L52.0339 13.7769C51.8973 13.6297 51.7366 13.4921 51.5571 13.3859V13.3876C51.0692 13.0951 50.5229 12.9479 49.9688 12.9235C49.0187 12.8843 48.0154 13.1926 47.1306 13.7168L47.1281 13.7159C46.8326 13.8901 46.5465 14.0903 46.2845 14.3071C46.7114 14.7643 47.0155 15.2345 47.2251 15.6899C47.4639 16.2089 47.5876 16.713 47.6418 17.171V17.1754C47.8007 18.5494 47.3093 19.5064 46.6049 19.9975C46.2605 20.2404 45.861 20.371 45.4599 20.3841C45.0613 20.3971 44.655 20.297 44.2908 20.0802C43.5486 19.6352 42.9799 18.7053 43.0366 17.3008C43.0675 16.5328 43.3252 15.763 43.7376 15.0569C44.3423 14.0215 45.2984 13.0933 46.3979 12.4438C47.5077 11.7855 48.7902 11.4015 50.0289 11.4546L50.0306 11.4537C50.8132 11.4877 51.588 11.6993 52.2941 12.1224V12.1242C52.6068 12.3149 52.88 12.5387 53.099 12.7781L53.1025 12.7816C53.5912 13.3171 53.8738 13.9719 53.9546 14.6154C54.0353 15.2763 53.9082 15.945 53.593 16.4849C53.4753 16.6895 53.3181 16.8872 53.1351 17.057L53.1102 17.084L52.9444 17.225L52.9083 17.2546C52.3646 17.6586 51.7332 17.798 51.1319 17.7126H51.1267C50.5452 17.6256 49.9825 17.3243 49.5496 16.8567L49.5204 16.8227L49.3589 16.6251ZM45.2758 15.3643C45.1702 15.5071 45.0731 15.6551 44.9846 15.804C44.6909 16.3064 44.5079 16.8419 44.4873 17.3591C44.4546 18.1445 44.7012 18.6217 45.025 18.8159L45.0276 18.815C45.1436 18.8847 45.2784 18.9178 45.4107 18.9143C45.5344 18.9099 45.6684 18.8655 45.7801 18.7863C46.0824 18.5764 46.286 18.0975 46.1984 17.3452C46.1623 17.0222 46.0747 16.666 45.9124 16.3125C45.7706 16.0051 45.5645 15.6838 45.2758 15.3643ZM42.0059 44.4658L42.0102 44.4623C42.1382 44.3561 42.2954 44.2995 42.4535 44.2969C42.6115 44.2995 42.7679 44.3561 42.8958 44.4623L42.9001 44.4658L42.9345 44.4954C43.2523 44.7636 43.5264 45.0422 43.7531 45.3183L43.7798 45.3531C44.4515 46.1864 44.7908 47.0998 44.7908 48.0167C44.7908 48.9493 44.4421 49.874 43.7549 50.7151C43.5203 51.0042 43.2317 51.2933 42.8984 51.5719C42.7679 51.6808 42.6107 51.7356 42.4535 51.7383C42.2963 51.7356 42.1382 51.6808 42.0085 51.5719C41.6743 51.2933 41.3857 51.0042 41.1512 50.7151C40.4649 49.874 40.1152 48.9493 40.1152 48.0167C40.1152 47.0998 40.4545 46.1864 41.1263 45.3531L41.1529 45.3183C41.3806 45.0422 41.6537 44.7636 41.9716 44.4954L42.0059 44.4658ZM41.5693 48.0166C41.5693 48.7933 41.9671 49.4264 42.4533 49.9871C42.9395 49.4264 43.3363 48.7933 43.3363 48.0166C43.3363 47.2347 42.9386 46.6069 42.4533 46.0522C41.9679 46.6069 41.5693 47.2347 41.5693 48.0166ZM34.429 42.3168C34.685 42.6276 35.1446 42.6677 35.4512 42.4091C35.7587 42.1505 35.7991 41.6838 35.5431 41.3729L35.3791 41.1735L35.3507 41.1422C34.9169 40.6746 34.3568 40.3724 33.7762 40.2853L33.7744 40.2862C33.174 40.1991 32.5418 40.3358 31.9946 40.7477L31.9611 40.7721L31.7936 40.9123L31.7669 40.941C31.5831 41.1117 31.4294 41.3111 31.3108 41.514C30.9938 42.0573 30.8684 42.7226 30.95 43.3843V43.3869C31.0325 44.033 31.3134 44.6861 31.809 45.226C32.0281 45.4654 32.2978 45.6901 32.6079 45.8755C33.3149 46.2996 34.0888 46.5112 34.8757 46.5443C36.1161 46.6 37.396 46.2125 38.505 45.5568C39.608 44.9073 40.564 43.9756 41.1645 42.9455C41.5794 42.2376 41.8371 41.4687 41.8671 40.6972C41.9247 39.2918 41.3552 38.3645 40.6121 37.9195C40.2462 37.7027 39.8382 37.6026 39.4413 37.6165C39.0436 37.6296 38.6424 37.7593 38.2971 38.0031C37.5944 38.4934 37.1005 39.4538 37.2629 40.8269V40.8304C37.3178 41.285 37.4381 41.7865 37.6769 42.3063L37.6786 42.3124C37.8882 42.7652 38.1897 43.2311 38.6192 43.6917C38.3555 43.9103 38.0738 44.1079 37.7757 44.2838C36.8926 44.8063 35.8867 45.1154 34.9367 45.0744H34.935C34.3792 45.0527 33.8337 44.9029 33.3449 44.6103C33.162 44.5006 32.9996 44.3648 32.8699 44.2229C32.5933 43.9224 32.4353 43.5541 32.3889 43.1962C32.3476 42.8558 32.4069 42.5214 32.5589 42.2611C32.6045 42.1792 32.662 42.1035 32.7213 42.0443V42.046L32.8871 41.9067C33.0975 41.7595 33.3372 41.7116 33.5666 41.7447C33.8165 41.7813 34.0665 41.9136 34.2684 42.1209L34.429 42.3168ZM39.9172 42.1982C39.8313 42.3471 39.7343 42.4917 39.6286 42.6353C39.34 42.3166 39.1347 41.9936 38.9921 41.6854C38.8289 41.3301 38.743 40.974 38.7052 40.6509C38.6176 39.903 38.8194 39.4232 39.1209 39.2142C39.2335 39.135 39.3657 39.0897 39.4912 39.0862C39.6209 39.0827 39.7592 39.1149 39.8751 39.1846H39.8769C40.2016 39.3761 40.449 39.8559 40.4163 40.6387C40.3957 41.1586 40.2127 41.6915 39.9172 42.1982ZM49.4525 42.409C49.145 42.1503 49.1029 41.6854 49.3589 41.3745L49.5204 41.1768L49.5496 41.1429C49.9825 40.6753 50.5452 40.3749 51.1267 40.2869H51.1319C51.7332 40.2016 52.3646 40.3409 52.9083 40.7458L52.9444 40.7754L53.1102 40.9165L53.1351 40.9426C53.3181 41.1124 53.4753 41.3109 53.593 41.5156C53.9082 42.0546 54.0353 42.7233 53.9546 43.3842C53.8738 44.0285 53.5912 44.6825 53.1025 45.218L53.099 45.2215C52.88 45.4609 52.6068 45.6856 52.2941 45.8754V45.8771C51.588 46.3003 50.8132 46.5119 50.0306 46.5459H50.0289C48.7902 46.5981 47.5077 46.215 46.3979 45.5558C45.2984 44.9063 44.3423 43.9789 43.7376 42.9427C43.3252 42.2365 43.0675 41.4677 43.0366 40.6997C42.9799 39.2943 43.5486 38.3652 44.2908 37.9194C44.655 37.7026 45.0613 37.6033 45.4599 37.6164C45.861 37.6294 46.2605 37.76 46.6049 38.003C47.3093 38.4932 47.8007 39.4502 47.6418 40.8251V40.8286C47.5876 41.2874 47.4639 41.7916 47.2251 42.3097C47.0155 42.7651 46.7114 43.2362 46.2845 43.6933C46.5465 43.9101 46.8326 44.1095 47.1281 44.2845L47.1306 44.2837C48.0154 44.807 49.0187 45.1161 49.9688 45.076C50.5229 45.0517 51.0692 44.9045 51.5571 44.6128V44.6137C51.7366 44.5083 51.8973 44.3707 52.0339 44.2236L52.0381 44.2192C52.313 43.9136 52.4711 43.5514 52.5149 43.1987C52.557 42.8574 52.496 42.5239 52.3457 42.2627C52.2976 42.1808 52.24 42.1051 52.179 42.045V42.0459L52.0339 41.9213C51.8182 41.769 51.5683 41.7132 51.3355 41.7454C51.0821 41.782 50.8295 41.9179 50.6259 42.1294L50.473 42.314C50.2179 42.6258 49.7601 42.6684 49.4525 42.409ZM44.9846 42.1957C45.0731 42.3446 45.1702 42.4927 45.2758 42.6355C45.5645 42.3159 45.7706 41.9955 45.9124 41.6872C46.0747 41.3337 46.1623 40.9784 46.1984 40.6545C46.286 39.9022 46.0824 39.4233 45.7801 39.2143C45.6684 39.1342 45.5344 39.0898 45.4107 39.0863C45.2784 39.082 45.1436 39.1159 45.0276 39.1847L45.025 39.1838C44.7012 39.378 44.4546 39.856 44.4873 40.6406C44.5079 41.1578 44.6909 41.6942 44.9846 42.1957ZM27.1984 29.448L27.1949 29.4515L27.1657 29.4863C26.9012 29.8093 26.6263 30.0854 26.354 30.3161L26.3196 30.3431C25.4967 31.024 24.5964 31.368 23.6919 31.368C22.7719 31.368 21.8596 31.0144 21.0298 30.3178C20.7447 30.081 20.4595 29.7884 20.1846 29.4497C20.0763 29.3182 20.0231 29.158 20.0205 28.9978C20.0231 28.8393 20.0763 28.68 20.1846 28.5476C20.4595 28.2089 20.7447 27.9172 21.0298 27.6795C21.8596 26.9829 22.7719 26.6294 23.6919 26.6294C24.5964 26.6294 25.4967 26.9733 26.3196 27.6534L26.354 27.6812C26.6263 27.9111 26.9012 28.188 27.1657 28.511L27.1949 28.5459L27.1984 28.5502C27.3032 28.6791 27.3581 28.8384 27.3616 28.9978C27.3581 29.1589 27.3032 29.3182 27.1984 29.448ZM21.748 28.9976C22.3004 29.4914 22.9257 29.8945 23.692 29.8945C24.4634 29.8945 25.0827 29.4905 25.6299 28.9976C25.0827 28.5065 24.4634 28.1025 23.692 28.1025C22.9257 28.1025 22.3004 28.5057 21.748 28.9976ZM29.224 36.0965C28.968 36.4074 29.0084 36.8732 29.3151 37.1327L29.5084 37.2955C29.7119 37.5002 29.8434 37.7536 29.8795 38.0069C29.9121 38.2394 29.864 38.4832 29.7188 38.6957L29.5814 38.8638H29.584C29.5255 38.9238 29.4508 38.9813 29.3701 39.0283C29.1132 39.1825 28.7825 39.2434 28.4475 39.2007C28.0944 39.1537 27.7311 38.9935 27.4339 38.7131C27.2947 38.5816 27.1607 38.4179 27.0525 38.2316C26.7638 37.7361 26.6161 37.1832 26.5946 36.6199V36.6181C26.5542 35.6551 26.8592 34.6354 27.3746 33.7403C27.5481 33.439 27.7422 33.1525 27.9587 32.8852C28.4131 33.3197 28.8727 33.6262 29.3185 33.8387L29.3254 33.8404C29.8382 34.0825 30.333 34.2044 30.7823 34.2601H30.7848C32.1395 34.4256 33.0861 33.9231 33.5706 33.2118C33.8111 32.8626 33.9383 32.4551 33.952 32.0519C33.9657 31.6488 33.8661 31.236 33.6531 30.866C33.2141 30.1119 32.2993 29.5346 30.9128 29.5929C30.1518 29.6234 29.3933 29.8855 28.6949 30.3043C27.6778 30.9139 26.7595 31.883 26.1187 33.001C25.4719 34.1252 25.0896 35.4226 25.1437 36.6799C25.1764 37.4775 25.386 38.2629 25.8043 38.9778C25.9873 39.293 26.2089 39.5665 26.446 39.7885C26.9777 40.2918 27.622 40.5756 28.2594 40.6592H28.2619C28.9148 40.7428 29.5711 40.6148 30.1071 40.2935C30.3072 40.1734 30.5031 40.0175 30.6723 39.8312L30.7007 39.8042L30.839 39.6335L30.863 39.6004C31.2693 39.0457 31.4042 38.4058 31.3183 37.7962L31.3191 37.7945C31.2332 37.2059 30.9352 36.6381 30.4739 36.1993L30.443 36.1697L30.2462 36.0034C29.9396 35.7439 29.4792 35.7848 29.224 36.0965ZM29.0005 31.8615C29.1414 31.7552 29.284 31.6577 29.4317 31.5698C29.9317 31.2702 30.4582 31.0848 30.9693 31.063C31.7424 31.0299 32.2158 31.2815 32.4047 31.6107V31.6124C32.4735 31.7308 32.5052 31.8693 32.5018 32.0008C32.4984 32.1288 32.4537 32.2629 32.3755 32.3769C32.1702 32.6826 31.6961 32.8872 30.9582 32.7975C30.6395 32.7601 30.2873 32.673 29.9377 32.5075C29.6344 32.363 29.3149 32.154 29.0005 31.8615ZM30.2442 21.9984C29.9375 22.2578 29.4796 22.2152 29.2237 21.9043C28.9668 21.5926 29.0098 21.1285 29.3173 20.869L29.4994 20.714C29.7073 20.5076 29.8421 20.2516 29.8782 19.9948C29.91 19.7588 29.855 19.5063 29.7047 19.2877L29.5819 19.1406H29.5827C29.5234 19.0779 29.4487 19.0204 29.368 18.9708C29.1103 18.8193 28.7804 18.7566 28.4445 18.7992C28.0966 18.8445 27.7384 19.0047 27.4378 19.2834L27.4335 19.2877C27.2883 19.4262 27.1534 19.5881 27.0486 19.7701H27.0495C26.7617 20.2656 26.6166 20.8194 26.5925 21.3801C26.553 22.3432 26.8571 23.3602 27.3742 24.2579V24.2606C27.546 24.5592 27.7427 24.8492 27.9566 25.1148C28.4076 24.682 28.8723 24.3746 29.3207 24.1613C29.8327 23.9192 30.3301 23.7947 30.7828 23.739H30.7862C32.1417 23.5788 33.0857 24.076 33.5711 24.79C33.8099 25.1391 33.9387 25.544 33.9525 25.9507C33.9645 26.3556 33.8666 26.7674 33.6527 27.1366C33.2129 27.8889 32.2955 28.4654 30.9099 28.407C30.1522 28.3757 29.3937 28.1145 28.6971 27.6974C27.6749 27.0844 26.76 26.1152 26.1192 25.0007C25.4689 23.8748 25.0901 22.5748 25.1425 21.32L25.1416 21.3183C25.1751 20.5251 25.3839 19.7388 25.8022 19.0239H25.8039C25.9912 18.7069 26.2128 18.43 26.4491 18.2071L26.4525 18.2045C26.9808 17.7082 27.6259 17.4217 28.2616 17.3407C28.9136 17.258 29.5724 17.3878 30.105 17.7065C30.3069 17.8266 30.5019 17.9851 30.6702 18.1706L30.696 18.1958L30.8351 18.3639L30.8644 18.4004C31.2638 18.9525 31.4012 19.5925 31.3171 20.202V20.2072C31.2303 20.7959 30.9331 21.3662 30.4718 21.805L30.4391 21.8355L30.2442 21.9984ZM28.9995 26.1379C29.1403 26.2441 29.2864 26.3434 29.4333 26.4322C29.9289 26.7308 30.4581 26.9154 30.9674 26.9372C31.7423 26.9703 32.2139 26.7204 32.4046 26.3921V26.3895C32.4724 26.2711 32.5059 26.1344 32.5016 26.0012C32.4982 25.8749 32.4544 25.7399 32.3754 25.6259C32.1692 25.3194 31.6967 25.113 30.9546 25.2027C30.635 25.2393 30.2845 25.3272 29.9358 25.4927C29.6317 25.6355 29.3147 25.8444 28.9995 26.1379ZM57.71 29.4515L57.7057 29.448C57.6009 29.3182 57.5459 29.1589 57.5425 28.9978C57.5459 28.8384 57.6009 28.6791 57.7057 28.5502L57.71 28.5459L57.7383 28.511C58.0038 28.188 58.2778 27.9111 58.5509 27.6812L58.5844 27.6534C59.4074 26.9733 60.3076 26.6294 61.213 26.6294C62.1321 26.6294 63.0444 26.9829 63.8742 27.6795C64.1594 27.9172 64.4446 28.2089 64.7203 28.5476C64.8277 28.68 64.881 28.8393 64.8835 28.9978C64.881 29.158 64.8277 29.3182 64.7203 29.4497C64.4446 29.7884 64.1594 30.081 63.8742 30.3178C63.0444 31.0144 62.1321 31.368 61.213 31.368C60.3076 31.368 59.4074 31.024 58.5844 30.3431L58.5509 30.3161C58.2778 30.0854 58.0038 29.8093 57.7383 29.4863L57.71 29.4515ZM61.2132 29.8945C61.9786 29.8945 62.6039 29.4914 63.1563 28.9976C62.6039 28.5057 61.9786 28.1025 61.2132 28.1025C60.4418 28.1025 59.8216 28.5065 59.2744 28.9976C59.8216 29.4905 60.4418 29.8945 61.2132 29.8945ZM55.5893 37.1327C55.8969 36.8732 55.9364 36.4074 55.6804 36.0965C55.4253 35.7848 54.9648 35.7439 54.6582 36.0034L54.4615 36.1697L54.4314 36.1993C53.9701 36.6381 53.672 37.2059 53.5853 37.7945L53.5861 37.7962C53.5002 38.4058 53.6351 39.0457 54.0423 39.6004L54.0655 39.6335L54.2038 39.8042L54.2321 39.8312C54.4013 40.0175 54.5972 40.1734 54.7973 40.2935C55.3342 40.6148 55.9896 40.7428 56.6433 40.6592H56.6451C57.2825 40.5756 57.9267 40.2918 58.4593 39.7885C58.6955 39.5665 58.9171 39.293 59.101 38.9778C59.5185 38.2629 59.7281 37.4775 59.7607 36.6799C59.8148 35.4226 59.4325 34.1252 58.7857 33.001C58.1449 31.883 57.2266 30.9139 56.2096 30.3043C55.512 29.8855 54.7535 29.6234 53.9925 29.5929C52.606 29.5346 51.6903 30.1119 51.2522 30.866C51.0383 31.236 50.9387 31.6488 50.9524 32.0519C50.9662 32.4551 51.0942 32.8626 51.3338 33.2118C51.8183 33.9231 52.7649 34.4256 54.1204 34.2601H54.123C54.5723 34.2044 55.0662 34.0825 55.5799 33.8404L55.5859 33.8387C56.0326 33.6262 56.4922 33.3197 56.9457 32.8852C57.1622 33.1525 57.3563 33.439 57.5298 33.7403C58.0453 34.6354 58.3502 35.6551 58.3098 36.6181L58.3107 36.6199C58.2883 37.1832 58.1406 37.7361 57.8528 38.2316C57.7437 38.4179 57.6106 38.5816 57.4706 38.7131C57.1742 38.9935 56.81 39.1537 56.4569 39.2007C56.1219 39.2434 55.7912 39.1825 55.5344 39.0283C55.4545 38.9813 55.3797 38.9238 55.3205 38.8638H55.3231L55.1856 38.6957C55.0404 38.4832 54.9923 38.2394 55.025 38.0069C55.0611 37.7536 55.1925 37.5002 55.3961 37.2955L55.5893 37.1327ZM55.4735 31.5698C55.6204 31.6577 55.763 31.7552 55.9039 31.8615C55.5895 32.154 55.2708 32.363 54.9676 32.5075C54.6171 32.673 54.2649 32.7601 53.9462 32.7975C53.2092 32.8872 52.735 32.6826 52.5289 32.3769C52.4507 32.2629 52.406 32.1288 52.4026 32.0008C52.3992 31.8693 52.4318 31.7308 52.4997 31.6124L52.5005 31.6107C52.6895 31.2815 53.162 31.0299 53.9351 31.063C54.447 31.0848 54.9736 31.2702 55.4735 31.5698ZM55.6808 21.9043C55.4248 22.2152 54.9669 22.2578 54.6603 21.9984L54.4653 21.8355L54.4326 21.805C53.9713 21.3662 53.6741 20.7959 53.5874 20.2072V20.202C53.5032 19.5925 53.6406 18.9525 54.0401 18.4004L54.0693 18.3639L54.2076 18.1958L54.2342 18.1706C54.4026 17.9851 54.5967 17.8266 54.7994 17.7065C55.3312 17.3878 55.9909 17.258 56.6429 17.3407C57.2777 17.4217 57.9236 17.7082 58.4519 18.2045L58.4554 18.2071C58.6916 18.43 58.9132 18.7069 59.1005 19.0239H59.1022C59.5197 19.7388 59.7284 20.5251 59.7628 21.3183L59.7619 21.32C59.8143 22.5748 59.4346 23.8748 58.7852 25.0007C58.1444 26.1152 57.2296 27.0844 56.2073 27.6974C55.5107 28.1145 54.7522 28.3757 53.9937 28.407C52.6081 28.4654 51.6915 27.8889 51.2517 27.1366C51.0378 26.7674 50.9399 26.3556 50.9528 25.9507C50.9657 25.544 51.0937 25.1391 51.3333 24.79C51.8187 24.076 52.7619 23.5788 54.1182 23.739H54.1217C54.5735 23.7947 55.0709 23.9192 55.5828 24.1613C56.0321 24.3746 56.4968 24.682 56.9478 25.1148C57.1617 24.8492 57.3584 24.5592 57.5302 24.2606V24.2579C58.0473 23.3602 58.3514 22.3432 58.3119 21.3801C58.2879 20.8194 58.1427 20.2656 57.8541 19.7701H57.8558C57.751 19.5881 57.6161 19.4262 57.4709 19.2877L57.4666 19.2834C57.166 19.0047 56.8078 18.8445 56.459 18.7992C56.1232 18.7566 55.7942 18.8193 55.5356 18.9708C55.4557 19.0204 55.381 19.0779 55.3208 19.1406H55.3226L55.1997 19.2877C55.0494 19.5063 54.9944 19.7588 55.0262 19.9948C55.0623 20.2516 55.1971 20.5076 55.405 20.714L55.5871 20.869C55.8947 21.1285 55.9368 21.5926 55.6808 21.9043ZM55.4703 26.4322C55.6181 26.3434 55.7632 26.2441 55.905 26.1379C55.5889 25.8444 55.2727 25.6355 54.9687 25.4927C54.6199 25.3272 54.2686 25.2393 53.9499 25.2027C53.2077 25.113 52.7352 25.3194 52.5282 25.6259C52.4501 25.7399 52.4062 25.8749 52.4028 26.0012C52.3985 26.1344 52.432 26.2711 52.4999 26.3895V26.3921C52.6906 26.7204 53.1622 26.9703 53.937 26.9372C54.4464 26.9154 54.9755 26.7308 55.4703 26.4322Z"
          fill="#61508F"></path>
</svg>
